#define face_16x16_flat_width 16
#define face_16x16_flat_height 16
static unsigned char face_16x16_flat_bits[] = {
   0x00, 0x00, 0xe0, 0x07, 0xf8, 0x1f, 0x1c, 0x38, 0x0c, 0x30, 0x66, 0x66,
   0x66, 0x66, 0x06, 0x60, 0x06, 0x60, 0xf6, 0x6f, 0x06, 0x60, 0x0c, 0x30,
   0x1c, 0x38, 0xf8, 0x1f, 0xe0, 0x07, 0x00, 0x00 };
