#define face_16x16_sad_width 16
#define face_16x16_sad_height 16
static unsigned char face_16x16_sad_bits[] = {
   0x00, 0x00, 0xe0, 0x07, 0xf8, 0x1f, 0x1c, 0x38, 0x0c, 0x30, 0x66, 0x66,
   0x66, 0x66, 0x06, 0x60, 0xc6, 0x63, 0x26, 0x64, 0x16, 0x68, 0x0c, 0x30,
   0x1c, 0x38, 0xf8, 0x1f, 0xe0, 0x07, 0x00, 0x00 };
